<?xml version="1.0" standalone="no"?>
<!DOCTYPE svg PUBLIC "-//W3C//DTD SVG 20010904//EN"
 "http://www.w3.org/TR/2001/REC-SVG-20010904/DTD/svg10.dtd">
<svg version="1.0" xmlns="http://www.w3.org/2000/svg"
 width="373.000000pt" height="117.000000pt" viewBox="0 0 373.000000 117.000000"
 preserveAspectRatio="xMidYMid meet">

<g transform="translate(0.000000,117.000000) scale(0.100000,-0.100000)"
fill="#000000" stroke="none">
<path d="M1779 1127 c-90 -61 -66 -208 40 -237 106 -28 199 75 159 178 -29 76
-129 106 -199 59z m114 -87 c21 -1 21 -1 4 -15 -14 -10 -17 -20 -11 -37 6 -21
5 -22 -10 -9 -14 12 -21 12 -38 2 -18 -11 -19 -10 -13 9 5 15 1 26 -12 35 -17
14 -17 14 5 15 12 0 25 7 29 16 5 15 7 15 15 0 5 -9 19 -16 31 -16z"/>
<path d="M216 796 c-109 -134 -199 -246 -200 -250 0 -3 89 -116 199 -251 l200
-245 1440 0 1440 1 218 245 c192 217 216 247 205 263 -7 10 -105 122 -218 249
l-205 232 -632 0 -633 0 0 -25 0 -25 623 0 622 0 194 -219 c107 -120 194 -221
195 -225 1 -3 -87 -105 -194 -226 l-195 -220 -1420 0 -1420 0 -180 221 c-99
121 -179 224 -177 227 1 4 82 105 180 224 l177 218 623 0 622 0 0 25 0 25
-632 0 -633 0 -199 -244z"/>
<path d="M554 806 c-46 -20 -77 -70 -82 -131 -4 -47 -2 -54 24 -74 l28 -22
-22 -45 c-55 -112 2 -141 103 -52 l48 43 -6 -31 c-8 -44 11 -69 47 -60 32 8
114 81 104 92 -5 4 -16 0 -26 -9 -47 -42 -42 -12 18 122 41 93 47 113 34 118
-32 12 -63 -16 -103 -94 -36 -73 -100 -153 -121 -153 -6 0 -10 11 -10 25 0 17
16 41 53 75 28 27 47 50 41 50 -6 0 -19 -9 -29 -20 -31 -34 -34 -22 -9 38 30
72 30 87 -1 117 -27 28 -46 30 -91 11z m36 -58 c0 -13 -14 -52 -30 -87 -30
-62 -31 -63 -50 -46 -29 27 -27 86 6 124 32 38 74 43 74 9z"/>
<path d="M2524 806 c-37 -16 -73 -60 -81 -98 -3 -16 -9 -31 -14 -34 -15 -9
-48 15 -64 46 -17 33 -35 40 -35 13 1 -25 29 -58 68 -77 27 -14 32 -22 32 -54
0 -71 -18 -112 -56 -128 -20 -8 -44 -12 -55 -9 -21 7 -26 44 -8 62 6 6 9 21 7
34 -5 35 -60 39 -82 7 -45 -65 9 -138 102 -138 107 0 182 66 182 159 0 39 3
42 45 62 56 27 85 62 85 105 0 57 -57 80 -126 50z m84 -52 c2 -25 -4 -37 -33
-63 -20 -17 -40 -31 -45 -31 -16 0 -12 68 6 101 12 24 21 30 42 27 22 -2 28
-9 30 -34z"/>
<path d="M3004 800 c-29 -12 -81 -74 -111 -134 -18 -36 -38 -59 -70 -78 -24
-16 -41 -33 -38 -38 4 -6 16 -2 32 10 32 25 38 21 22 -13 -6 -14 -21 -27 -33
-29 -17 -2 -21 -10 -21 -40 0 -28 -11 -52 -47 -101 -27 -36 -48 -68 -48 -71 0
-10 60 -7 80 4 10 6 35 37 56 70 20 33 44 62 53 65 21 6 89 75 75 75 -5 0 -20
-7 -32 -16 -13 -9 -25 -14 -28 -11 -2 2 9 33 24 68 23 50 37 68 66 83 45 24
93 77 102 113 11 42 -31 64 -82 43z m36 -43 c0 -17 -48 -87 -60 -87 -15 0 -12
17 10 60 19 38 50 55 50 27z"/>
<path d="M1830 792 c-22 -6 -40 -33 -40 -58 0 -26 17 -34 48 -23 23 9 43 45
35 66 -6 15 -24 21 -43 15z"/>
<path d="M3185 680 c-5 -17 -12 -20 -40 -14 -21 4 -43 0 -63 -10 -30 -15 -106
-96 -98 -104 2 -2 -2 -19 -10 -38 -28 -66 15 -95 81 -54 l33 20 5 -20 c9 -34
50 -24 106 26 58 52 69 80 16 40 -45 -35 -46 -18 -5 64 35 69 35 73 14 94 -21
21 -31 20 -39 -4z m-59 -114 c-29 -49 -60 -74 -71 -56 -8 12 15 52 53 93 39
41 50 18 18 -37z"/>
<path d="M861 608 c-52 -66 -59 -88 -15 -47 l26 24 -31 -62 c-36 -73 -38 -83
-12 -83 11 0 48 33 87 76 71 80 90 85 54 14 -44 -86 -5 -115 73 -54 44 35 58
67 17 42 -32 -20 -32 -4 0 63 25 54 28 66 16 77 -11 12 -18 11 -43 -1 -16 -9
-36 -23 -43 -32 -7 -9 -22 -21 -33 -26 -16 -9 -18 -8 -12 10 7 22 -9 61 -25
61 -5 0 -32 -28 -59 -62z"/>
<path d="M1148 613 c-26 -31 -44 -61 -41 -66 3 -5 14 1 25 14 14 18 12 10 -7
-31 -29 -63 -31 -79 -11 -86 19 -7 50 10 104 60 29 26 41 33 34 19 -17 -31
-15 -73 4 -80 31 -12 140 66 115 81 -5 4 -12 2 -16 -4 -9 -15 -25 -12 -25 5 0
9 12 38 26 66 28 57 26 80 -6 72 -20 -5 -36 -21 -100 -95 -40 -48 -56 -40 -29
14 17 33 19 46 10 64 -6 13 -16 24 -23 24 -7 0 -34 -26 -60 -57z"/>
<path d="M1435 610 c-45 -59 -50 -77 -12 -42 15 13 12 3 -12 -45 -36 -73 -38
-83 -12 -83 11 0 47 32 87 76 71 79 90 84 55 15 -49 -96 -3 -121 84 -47 40 34
45 58 6 35 -33 -21 -33 -6 -1 62 25 55 28 66 16 78 -12 12 -19 11 -48 -7 -19
-12 -43 -30 -53 -42 -24 -27 -33 -25 -27 5 4 24 -12 55 -29 55 -4 0 -29 -27
-54 -60z"/>
<path d="M1711 613 c-22 -31 -38 -61 -35 -65 3 -5 13 -1 21 9 14 17 14 17 7
-2 -33 -94 -29 -123 18 -112 36 10 98 65 91 83 -5 13 -8 12 -26 -3 -19 -18
-20 -17 -14 7 3 14 11 44 18 67 10 34 10 44 0 57 -22 27 -38 19 -80 -41z"/>
<path d="M1880 619 c-43 -55 -54 -84 -19 -53 18 16 17 9 -10 -43 -36 -73 -38
-83 -12 -83 11 0 47 32 86 75 37 42 70 74 73 71 2 -3 -2 -20 -11 -38 -31 -66
-36 -85 -24 -97 6 -6 19 -11 28 -11 23 0 119 78 119 97 0 11 -9 7 -32 -12 -18
-15 -34 -23 -35 -18 -2 6 10 39 27 74 25 54 28 66 16 77 -11 12 -18 11 -43 -1
-16 -9 -36 -23 -43 -32 -7 -9 -22 -21 -32 -26 -16 -9 -18 -7 -12 16 6 24 -9
55 -27 55 -5 0 -27 -23 -49 -51z"/>
<path d="M2642 646 c-19 -13 -49 -42 -67 -64 -30 -34 -33 -44 -28 -78 3 -22
10 -45 16 -51 17 -23 73 -15 108 14 17 15 38 28 46 29 40 6 62 34 27 34 -12 0
-13 5 -7 23 4 12 8 42 8 67 0 44 -1 45 -35 48 -25 2 -45 -4 -68 -22z m74 -51
c-4 -15 -16 -29 -26 -32 -14 -4 -20 -14 -20 -33 0 -34 -22 -56 -38 -37 -21 25
58 161 81 138 5 -5 7 -22 3 -36z"/>
<path d="M1030 274 c0 -8 5 -12 10 -9 6 4 8 11 5 16 -9 14 -15 11 -15 -7z"/>
<path d="M1066 281 c-4 -5 -2 -12 3 -15 5 -4 12 -2 15 3 4 5 2 12 -3 15 -5 4
-12 2 -15 -3z"/>
<path d="M1106 281 c-4 -5 -2 -12 3 -15 5 -4 12 -2 15 3 4 5 2 12 -3 15 -5 4
-12 2 -15 -3z"/>
<path d="M1145 281 c-3 -5 -1 -12 5 -16 5 -3 10 1 10 9 0 18 -6 21 -15 7z"/>
<path d="M1380 276 c0 -9 5 -16 10 -16 6 0 10 4 10 9 0 6 -4 13 -10 16 -5 3
-10 -1 -10 -9z"/>
<path d="M1416 281 c-4 -5 -2 -12 3 -15 5 -4 12 -2 15 3 4 5 2 12 -3 15 -5 4
-12 2 -15 -3z"/>
<path d="M1456 281 c-4 -5 -2 -12 3 -15 5 -4 12 -2 15 3 4 5 2 12 -3 15 -5 4
-12 2 -15 -3z"/>
<path d="M1496 281 c-4 -5 -2 -12 3 -15 5 -4 12 -2 15 3 4 5 2 12 -3 15 -5 4
-12 2 -15 -3z"/>
<path d="M1535 281 c-3 -5 -1 -12 5 -16 5 -3 10 1 10 9 0 18 -6 21 -15 7z"/>
<path d="M1770 274 c0 -8 5 -12 10 -9 6 4 8 11 5 16 -9 14 -15 11 -15 -7z"/>
<path d="M1806 281 c-4 -5 -2 -12 3 -15 5 -4 12 -2 15 3 4 5 2 12 -3 15 -5 4
-12 2 -15 -3z"/>
<path d="M1846 281 c-4 -5 -2 -12 3 -15 5 -4 12 -2 15 3 4 5 2 12 -3 15 -5 4
-12 2 -15 -3z"/>
<path d="M1885 281 c-3 -5 -1 -12 5 -16 5 -3 10 1 10 9 0 18 -6 21 -15 7z"/>
<path d="M1926 281 c-4 -7 -5 -15 -2 -18 9 -9 19 4 14 18 -4 11 -6 11 -12 0z"/>
<path d="M2120 276 c0 -9 5 -16 10 -16 6 0 10 4 10 9 0 6 -4 13 -10 16 -5 3
-10 -1 -10 -9z"/>
<path d="M2156 281 c-4 -5 -2 -12 3 -15 5 -4 12 -2 15 3 4 5 2 12 -3 15 -5 4
-12 2 -15 -3z"/>
<path d="M2196 281 c-4 -5 -2 -12 3 -15 5 -4 12 -2 15 3 4 5 2 12 -3 15 -5 4
-12 2 -15 -3z"/>
<path d="M2236 281 c-4 -5 -2 -12 3 -15 5 -4 12 -2 15 3 4 5 2 12 -3 15 -5 4
-12 2 -15 -3z"/>
<path d="M2275 281 c-3 -5 -1 -12 5 -16 5 -3 10 1 10 9 0 18 -6 21 -15 7z"/>
<path d="M2510 276 c0 -9 5 -16 10 -16 6 0 10 4 10 9 0 6 -4 13 -10 16 -5 3
-10 -1 -10 -9z"/>
<path d="M2546 281 c-4 -5 -2 -12 3 -15 5 -4 12 -2 15 3 4 5 2 12 -3 15 -5 4
-12 2 -15 -3z"/>
<path d="M2586 281 c-4 -5 -2 -12 3 -15 5 -4 12 -2 15 3 4 5 2 12 -3 15 -5 4
-12 2 -15 -3z"/>
<path d="M2625 281 c-3 -5 -1 -12 5 -16 5 -3 10 1 10 9 0 18 -6 21 -15 7z"/>
<path d="M2666 281 c-4 -7 -5 -15 -2 -18 9 -9 19 4 14 18 -4 11 -6 11 -12 0z"/>
<path d="M870 270 c0 -5 5 -10 10 -10 6 0 10 5 10 10 0 6 -4 10 -10 10 -5 0
-10 -4 -10 -10z"/>
<path d="M910 270 c0 -5 5 -10 10 -10 6 0 10 5 10 10 0 6 -4 10 -10 10 -5 0
-10 -4 -10 -10z"/>
<path d="M950 270 c0 -5 5 -10 10 -10 6 0 10 5 10 10 0 6 -4 10 -10 10 -5 0
-10 -4 -10 -10z"/>
<path d="M990 270 c0 -5 5 -10 10 -10 6 0 10 5 10 10 0 6 -4 10 -10 10 -5 0
-10 -4 -10 -10z"/>
<path d="M1180 270 c0 -5 5 -10 10 -10 6 0 10 5 10 10 0 6 -4 10 -10 10 -5 0
-10 -4 -10 -10z"/>
<path d="M1220 270 c0 -5 5 -10 10 -10 6 0 10 5 10 10 0 6 -4 10 -10 10 -5 0
-10 -4 -10 -10z"/>
<path d="M1260 270 c0 -5 5 -10 10 -10 6 0 10 5 10 10 0 6 -4 10 -10 10 -5 0
-10 -4 -10 -10z"/>
<path d="M1300 270 c0 -5 5 -10 10 -10 6 0 10 5 10 10 0 6 -4 10 -10 10 -5 0
-10 -4 -10 -10z"/>
<path d="M1340 270 c0 -5 5 -10 10 -10 6 0 10 5 10 10 0 6 -4 10 -10 10 -5 0
-10 -4 -10 -10z"/>
<path d="M1570 270 c0 -5 5 -10 10 -10 6 0 10 5 10 10 0 6 -4 10 -10 10 -5 0
-10 -4 -10 -10z"/>
<path d="M1610 270 c0 -5 5 -10 10 -10 6 0 10 5 10 10 0 6 -4 10 -10 10 -5 0
-10 -4 -10 -10z"/>
<path d="M1650 270 c0 -5 5 -10 10 -10 6 0 10 5 10 10 0 6 -4 10 -10 10 -5 0
-10 -4 -10 -10z"/>
<path d="M1690 270 c0 -5 5 -10 10 -10 6 0 10 5 10 10 0 6 -4 10 -10 10 -5 0
-10 -4 -10 -10z"/>
<path d="M1730 270 c0 -5 5 -10 10 -10 6 0 10 5 10 10 0 6 -4 10 -10 10 -5 0
-10 -4 -10 -10z"/>
<path d="M1960 270 c0 -5 5 -10 10 -10 6 0 10 5 10 10 0 6 -4 10 -10 10 -5 0
-10 -4 -10 -10z"/>
<path d="M2000 270 c0 -5 5 -10 10 -10 6 0 10 5 10 10 0 6 -4 10 -10 10 -5 0
-10 -4 -10 -10z"/>
<path d="M2040 270 c0 -5 5 -10 10 -10 6 0 10 5 10 10 0 6 -4 10 -10 10 -5 0
-10 -4 -10 -10z"/>
<path d="M2080 270 c0 -5 5 -10 10 -10 6 0 10 5 10 10 0 6 -4 10 -10 10 -5 0
-10 -4 -10 -10z"/>
<path d="M2310 270 c0 -5 5 -10 10 -10 6 0 10 5 10 10 0 6 -4 10 -10 10 -5 0
-10 -4 -10 -10z"/>
<path d="M2350 270 c0 -5 5 -10 10 -10 6 0 10 5 10 10 0 6 -4 10 -10 10 -5 0
-10 -4 -10 -10z"/>
<path d="M2390 270 c0 -5 5 -10 10 -10 6 0 10 5 10 10 0 6 -4 10 -10 10 -5 0
-10 -4 -10 -10z"/>
<path d="M2430 270 c0 -5 5 -10 10 -10 6 0 10 5 10 10 0 6 -4 10 -10 10 -5 0
-10 -4 -10 -10z"/>
<path d="M2470 270 c0 -5 5 -10 10 -10 6 0 10 5 10 10 0 6 -4 10 -10 10 -5 0
-10 -4 -10 -10z"/>
<path d="M2700 270 c0 -5 5 -10 10 -10 6 0 10 5 10 10 0 6 -4 10 -10 10 -5 0
-10 -4 -10 -10z"/>
<path d="M2740 270 c0 -5 5 -10 10 -10 6 0 10 5 10 10 0 6 -4 10 -10 10 -5 0
-10 -4 -10 -10z"/>
<path d="M2780 270 c0 -5 5 -10 10 -10 6 0 10 5 10 10 0 6 -4 10 -10 10 -5 0
-10 -4 -10 -10z"/>
<path d="M2820 270 c0 -5 5 -10 10 -10 6 0 10 5 10 10 0 6 -4 10 -10 10 -5 0
-10 -4 -10 -10z"/>
</g>
</svg>
